# Blender v2.82 (sub 7) OBJ File: 'Sign.blend'
# www.blender.org
mtllib Sign.mtl
o Cube
v 0.215099 7.601803 -0.180611
v 0.215099 -7.601803 -0.180611
v 0.215099 7.601803 0.180611
v 0.215099 -7.601803 0.180611
v -0.215099 7.601803 -0.180611
v -0.215099 -7.601803 -0.180611
v -0.215099 7.601803 0.180611
v -0.215099 -7.601803 0.180611
v 0.215099 6.944745 -0.180611
v 0.215099 5.900683 -0.180611
v -0.215099 5.900683 0.180611
v -0.215099 6.944745 0.180611
v 0.215099 6.944745 0.180611
v 0.215099 5.900683 0.180611
v -0.215099 6.944745 -0.180611
v -0.215099 5.900683 -0.180611
v 0.359555 6.944745 -0.301905
v 0.359555 5.900683 -0.301905
v -0.359555 5.900683 0.301905
v -0.359555 6.944745 0.301905
v 0.359555 6.944745 0.301905
v 0.359555 5.900683 0.301905
v -0.359555 6.944745 -0.301905
v -0.359555 5.900683 -0.301905
v 0.215099 5.325965 -0.180611
v 0.215099 4.170991 -0.180611
v 0.215099 5.325965 0.180611
v 0.215099 4.170991 0.180611
v -0.215099 5.325965 -0.180611
v -0.215099 4.170991 -0.180611
v -0.215099 4.170991 0.180611
v -0.215099 5.325965 0.180611
v 0.322503 5.325965 -0.270794
v 0.322503 4.170991 -0.270794
v 0.322503 5.325965 0.270794
v 0.322503 4.170991 0.270794
v -0.322503 5.325965 -0.270794
v -0.322503 4.170991 -0.270794
v -0.322503 4.170991 0.270794
v -0.322503 5.325965 0.270794
v 0.215099 3.674658 -0.180611
v 0.215099 2.375458 -0.180611
v 0.215099 3.674658 0.180611
v 0.215099 2.375458 0.180611
v -0.215099 3.674658 -0.180611
v -0.215099 2.375458 -0.180611
v -0.215099 2.375458 0.180611
v -0.215099 3.674658 0.180611
v 0.247042 3.582594 -0.207432
v 0.247042 2.467522 -0.207432
v 0.247042 3.582594 0.207432
v 0.247042 2.467522 0.207432
v -0.247042 3.582594 -0.207432
v -0.247042 2.467522 -0.207432
v -0.247042 2.467522 0.207432
v -0.247042 3.582594 0.207432
v 2.923972 6.944745 -0.301905
v 2.923972 5.900683 -0.301905
v 2.923972 6.944745 0.301905
v 2.923972 5.900683 0.301905
v -2.989493 5.325965 -0.270794
v -2.989493 4.170991 -0.270794
v -2.989493 4.170991 0.270794
v -2.989493 5.325965 0.270794
v 0.247042 3.582594 -2.201534
v 0.247042 2.467522 -2.201534
v -0.247042 3.582594 -2.201534
v -0.247042 2.467522 -2.201534
vt 0.568637 0.482051
vt 0.568637 0.534920
vt 0.518462 0.534920
vt 0.518462 0.482051
vt 0.241421 0.593719
vt 0.243589 0.593719
vt 0.243589 0.646588
vt 0.241421 0.646588
vt 0.247926 0.646588
vt 0.245757 0.646588
vt 0.245757 0.593719
vt 0.247926 0.593719
vt 0.568637 0.587790
vt 0.518462 0.587790
vt 0.518462 0.534920
vt 0.568637 0.534920
vt 0.568277 0.640659
vt 0.566109 0.640659
vt 0.566109 0.587790
vt 0.568277 0.587790
vt 0.245757 0.646588
vt 0.243589 0.646588
vt 0.243589 0.593719
vt 0.245757 0.593719
vt 0.251719 0.646588
vt 0.249823 0.646588
vt 0.249823 0.593719
vt 0.251719 0.593719
vt 0.243359 0.523096
vt 0.243359 0.575966
vt 0.226511 0.593719
vt 0.226511 0.505343
vt 0.249823 0.646588
vt 0.247926 0.646588
vt 0.247926 0.593719
vt 0.249823 0.593719
vt 0.568637 0.552673
vt 0.568637 0.499804
vt 0.585485 0.482051
vt 0.585485 0.570426
vt 0.255513 0.646588
vt 0.253616 0.646588
vt 0.253616 0.593719
vt 0.255513 0.593719
vt 0.293534 0.575966
vt 0.310382 0.593719
vt 0.251719 0.593719
vt 0.253616 0.593719
vt 0.251719 0.646588
vt 0.293534 0.523096
vt 0.310382 0.505343
vt 0.919630 0.369234
vt 0.971475 0.369234
vt 0.971475 0.552174
vt 0.919630 0.552174
vt 0.226511 0.505343
vt 0.142641 0.505343
vt 0.142641 0.190188
vt 0.226511 0.190188
vt 0.579533 0.455314
vt 0.576088 0.455314
vt 0.576088 0.366939
vt 0.579533 0.366939
vt 0.576088 0.278563
vt 0.579533 0.278563
vt 0.579533 0.366939
vt 0.576088 0.366939
vt 0.159489 0.523096
vt 0.159489 0.575966
vt 0.142641 0.593719
vt 0.209663 0.575966
vt 0.226511 0.593719
vt 0.209663 0.523096
vt 0.257151 0.593719
vt 0.258789 0.593719
vt 0.258789 0.646588
vt 0.257151 0.646588
vt 0.398136 0.531149
vt 0.398136 0.584018
vt 0.385609 0.597218
vt 0.385609 0.517949
vt 0.262064 0.646588
vt 0.260427 0.646588
vt 0.260427 0.593719
vt 0.262064 0.593719
vt 0.448310 0.584018
vt 0.460837 0.597218
vt 0.257151 0.646588
vt 0.255513 0.646588
vt 0.255513 0.593719
vt 0.448310 0.531149
vt 0.460837 0.517949
vt 0.260427 0.646588
vt 0.258789 0.646588
vt 0.258789 0.593719
vt 0.260427 0.593719
vt 0.572448 0.570426
vt 0.576260 0.570426
vt 0.576260 0.649695
vt 0.572448 0.649695
vt 0.310382 0.190188
vt 0.385609 0.190188
vt 0.385609 0.517949
vt 0.310382 0.517949
vt 0.572448 0.649695
vt 0.568637 0.649695
vt 0.568637 0.570426
vt 0.790155 0.471307
vt 0.719621 0.471307
vt 0.719621 0.327160
vt 0.790155 0.327160
vt 0.322908 0.531149
vt 0.322908 0.584018
vt 0.310382 0.597218
vt 0.310382 0.517949
vt 0.373083 0.531149
vt 0.385609 0.517949
vt 0.373083 0.584018
vt 0.385609 0.597218
vt 0.175567 0.593719
vt 0.208494 0.593719
vt 0.208494 0.646588
vt 0.175567 0.646588
vt 0.514737 0.485977
vt 0.464562 0.485977
vt 0.460837 0.482051
vt 0.518462 0.482051
vt 0.241421 0.646588
vt 0.208494 0.593719
vt 0.241421 0.593719
vt 0.514737 0.538846
vt 0.518462 0.542772
vt 0.175567 0.646588
vt 0.142641 0.646588
vt 0.142641 0.593719
vt 0.464562 0.538846
vt 0.460837 0.542772
vt 0.518462 0.587790
vt 0.551389 0.587790
vt 0.551389 0.640659
vt 0.518462 0.640659
vt 0.806780 0.218379
vt 0.871506 0.218379
vt 0.871508 0.510242
vt 0.806781 0.510242
vt 0.562429 0.587790
vt 0.566109 0.587790
vt 0.566109 0.648511
vt 0.562429 0.648511
vt 0.562429 0.648511
vt 0.558749 0.648511
vt 0.558749 0.587790
vt 0.562429 0.587790
vt 0.555069 0.587790
vt 0.558749 0.587790
vt 0.555069 0.648511
vt 0.514737 0.546697
vt 0.464562 0.546697
vt 0.460837 0.542772
vt 0.518462 0.542772
vt 0.464562 0.599567
vt 0.460837 0.603492
vt 0.514737 0.599567
vt 0.518462 0.603492
vt 0.579533 0.278563
vt 0.576088 0.278563
vt 0.576088 0.190188
vt 0.579533 0.190188
vt 0.226511 0.190188
vt 0.310382 0.190188
vt 0.509118 0.966152
vt 0.447199 0.966152
vt 0.447199 0.650996
vt 0.509118 0.650996
vt 0.690947 0.498378
vt 0.643247 0.498378
vt 0.643245 0.183223
vt 0.690946 0.183223
vt 0.583345 0.357832
vt 0.579533 0.357832
vt 0.579533 0.278563
vt 0.583345 0.278563
vt 0.699811 0.574824
vt 0.754267 0.574824
vt 0.754268 0.902586
vt 0.699811 0.902586
vt 0.385609 0.190188
vt 0.460837 0.190188
vt 0.460837 0.517949
vt 0.385609 0.517949
vt 0.366372 0.631465
vt 0.409781 0.631465
vt 0.409782 0.959226
vt 0.366372 0.959226
vt 0.555069 0.648511
vt 0.551389 0.648511
vt 0.551389 0.587790
vt 0.555069 0.587790
vt 0.518462 0.190188
vt 0.576088 0.190188
vt 0.576088 0.482051
vt 0.518462 0.482051
vt 0.460837 0.190188
vt 0.518462 0.190188
vt 0.920049 0.886219
vt 0.863255 0.886219
vt 0.863255 0.594356
vt 0.920049 0.594356
vn 0.0000 1.0000 0.0000
vn 0.0000 0.0000 1.0000
vn -1.0000 0.0000 0.0000
vn 0.0000 -1.0000 0.0000
vn 1.0000 0.0000 0.0000
vn 0.0000 0.0000 -1.0000
vn 0.0000 -0.2797 -0.9601
vn 0.9447 -0.3278 0.0000
vn -0.9447 -0.3278 0.0000
vn 0.0000 -0.2797 0.9601
vn 0.0000 0.2797 0.9601
vn -0.9447 0.3278 0.0000
vn 0.9447 0.3278 0.0000
vn 0.0000 0.2797 -0.9601
usemtl Material
s off
f 1/1/1 5/2/1 7/3/1 3/4/1
f 13/5/2 3/6/2 7/7/2 12/8/2
f 12/9/3 7/10/3 5/11/3 15/12/3
f 6/13/4 2/14/4 4/15/4 8/16/4
f 9/17/5 1/18/5 3/19/5 13/20/5
f 15/21/6 5/22/6 1/23/6 9/24/6
f 29/25/6 16/26/6 10/27/6 25/28/6
f 10/29/4 16/30/4 24/31/4 18/32/4
f 25/33/5 10/34/5 14/35/5 27/36/5
f 14/37/4 10/38/4 18/39/4 22/40/4
f 32/41/3 11/42/3 16/43/3 29/44/3
f 16/30/4 11/45/4 19/46/4 24/31/4
f 27/47/2 14/48/2 11/42/2 32/49/2
f 11/45/4 14/50/4 22/51/4 19/46/4
f 24/52/6 23/53/6 17/54/6 18/55/6
f 17/56/1 21/57/1 59/58/1 57/59/1
f 19/60/3 20/61/3 23/62/3 24/63/3
f 22/64/2 21/65/2 20/66/2 19/67/2
f 13/68/1 12/69/1 20/70/1 21/57/1
f 12/69/1 15/71/1 23/72/1 20/70/1
f 9/73/1 13/68/1 21/57/1 17/56/1
f 15/71/1 9/73/1 17/56/1 23/72/1
f 43/74/2 28/75/2 31/76/2 48/77/2
f 27/78/1 32/79/1 40/80/1 35/81/1
f 48/82/3 31/83/3 30/84/3 45/85/3
f 32/79/1 29/86/1 37/87/1 40/80/1
f 41/88/5 26/89/5 28/90/5 43/74/5
f 25/91/1 27/78/1 35/81/1 33/92/1
f 45/93/6 30/94/6 26/95/6 41/96/6
f 29/86/1 25/91/1 33/92/1 37/87/1
f 36/97/2 35/98/2 40/99/2 39/100/2
f 38/101/4 39/102/4 63/103/4 62/104/4
f 34/105/5 33/106/5 35/107/5 36/97/5
f 38/108/6 37/109/6 33/110/6 34/111/6
f 26/112/4 30/113/4 38/114/4 34/115/4
f 28/116/4 26/112/4 34/115/4 36/117/4
f 30/113/4 31/118/4 39/119/4 38/114/4
f 31/118/4 28/116/4 36/117/4 39/119/4
f 6/120/6 46/121/6 42/122/6 2/123/6
f 42/124/7 46/125/7 54/126/7 50/127/7
f 2/128/5 42/122/5 44/129/5 4/130/5
f 44/131/8 42/124/8 50/127/8 52/132/8
f 8/133/3 47/134/3 46/135/3 6/120/3
f 46/125/9 47/136/9 55/137/9 54/126/9
f 4/138/2 44/139/2 47/140/2 8/141/2
f 47/136/10 44/131/10 52/132/10 55/137/10
f 49/142/5 50/143/5 66/144/5 65/145/5
f 50/146/5 49/147/5 51/148/5 52/149/5
f 55/150/3 56/151/3 53/152/3 54/153/3
f 52/154/2 51/155/2 56/151/2 55/156/2
f 43/157/11 48/158/11 56/159/11 51/160/11
f 48/158/12 45/161/12 53/162/12 56/159/12
f 41/163/13 43/157/13 51/160/13 49/164/13
f 45/161/14 41/163/14 49/164/14 53/162/14
f 58/165/5 57/166/5 59/167/5 60/168/5
f 22/51/4 18/32/4 58/169/4 60/170/4
f 21/171/2 22/172/2 60/173/2 59/174/2
f 18/175/6 17/176/6 57/177/6 58/178/6
f 63/179/3 64/180/3 61/181/3 62/182/3
f 37/183/6 38/184/6 62/185/6 61/186/6
f 40/187/1 37/188/1 61/189/1 64/190/1
f 39/191/2 40/192/2 64/193/2 63/194/2
f 68/195/6 67/196/6 65/197/6 66/198/6
f 53/199/1 49/200/1 65/201/1 67/202/1
f 50/127/4 54/126/4 68/203/4 66/204/4
f 54/205/3 53/206/3 67/207/3 68/208/3
